<svg width="32" height="32" viewBox="0 0 32 32" fill="currentColor" xmlns="http://www.w3.org/2000/svg">
<path d="M13.7833 23.2832L24.9458 12.1207L22.7292 9.90401L13.7833 18.8498L9.27082 14.3373L7.05416 16.554L13.7833 23.2832ZM16 31.8332C13.8097 31.8332 11.7514 31.4175 9.82499 30.5863C7.8986 29.755 6.22291 28.6269 4.79791 27.2019C3.37291 25.7769 2.24478 24.1012 1.41353 22.1748C0.582282 20.2484 0.166656 18.1901 0.166656 15.9998C0.166656 13.8096 0.582282 11.7512 1.41353 9.82484C2.24478 7.89845 3.37291 6.22275 4.79791 4.79775C6.22291 3.37275 7.8986 2.24463 9.82499 1.41338C11.7514 0.582129 13.8097 0.166504 16 0.166504C18.1903 0.166504 20.2486 0.582129 22.175 1.41338C24.1014 2.24463 25.7771 3.37275 27.2021 4.79775C28.6271 6.22275 29.7552 7.89845 30.5865 9.82484C31.4177 11.7512 31.8333 13.8096 31.8333 15.9998C31.8333 18.1901 31.4177 20.2484 30.5865 22.1748C29.7552 24.1012 28.6271 25.7769 27.2021 27.2019C25.7771 28.6269 24.1014 29.755 22.175 30.5863C20.2486 31.4175 18.1903 31.8332 16 31.8332ZM16 28.6665C19.5361 28.6665 22.5312 27.4394 24.9854 24.9853C27.4396 22.5311 28.6667 19.5359 28.6667 15.9998C28.6667 12.4637 27.4396 9.46859 24.9854 7.01442C22.5312 4.56025 19.5361 3.33317 16 3.33317C12.4639 3.33317 9.46874 4.56025 7.01457 7.01442C4.56041 9.46859 3.33332 12.4637 3.33332 15.9998C3.33332 19.5359 4.56041 22.5311 7.01457 24.9853C9.46874 27.4394 12.4639 28.6665 16 28.6665Z" fill="currentColor"/>
</svg>
